<svg width="362" height="432" viewBox="0 0 362 432" fill="none" xmlns="http://www.w3.org/2000/svg">
<path d="M329.562 216C329.562 275.63 318.397 329.579 294.241 368.622C270.091 407.657 232.952 431.8 180.968 431.834C128.985 431.868 91.8463 407.725 67.6957 368.673C43.5396 329.612 32.375 275.63 32.375 216C32.375 156.37 43.5396 102.421 67.6957 63.3777C91.8463 24.3429 128.985 0.199824 180.969 0.166026C232.952 0.132228 270.091 24.2752 294.241 63.3269C318.397 102.388 329.562 156.37 329.562 216Z" stroke="#070707" stroke-width="0.332052"/>
<path d="M180.968 91.8104C230.925 91.8104 276.118 101.143 308.824 121.332C341.521 141.516 361.743 172.553 361.771 215.998C361.799 259.443 341.578 290.48 308.867 310.664C276.147 330.853 230.925 340.186 180.968 340.186C131.012 340.186 85.8186 330.853 53.1129 310.664C20.4162 290.48 0.194333 259.443 0.166021 215.998C0.137709 172.553 20.3595 141.516 53.0704 121.332C85.7903 101.143 131.012 91.8104 180.968 91.8104Z" stroke="#070707" stroke-width="0.332052"/>
</svg>
