<svg width="18" height="19" viewBox="0 0 18 19" fill="none" xmlns="http://www.w3.org/2000/svg">
<path d="M8.99869 0.35791C11.4274 0.35791 11.7304 0.366849 12.6833 0.411544C13.6353 0.456238 14.2834 0.605518 14.8537 0.827203C15.4436 1.05425 15.9406 1.36175 16.4376 1.85786C16.8922 2.30471 17.2439 2.84524 17.4683 3.44183C17.6891 4.01124 17.8392 4.66021 17.8839 5.6122C17.926 6.56509 17.9376 6.86812 17.9376 9.29682C17.9376 11.7255 17.9286 12.0285 17.8839 12.9814C17.8392 13.9334 17.6891 14.5815 17.4683 15.1518C17.2445 15.7487 16.8927 16.2894 16.4376 16.7358C15.9907 17.1902 15.4502 17.5418 14.8537 17.7664C14.2843 17.9872 13.6353 18.1374 12.6833 18.1821C11.7304 18.2241 11.4274 18.2357 8.99869 18.2357C6.57 18.2357 6.26697 18.2268 5.31409 18.1821C4.3621 18.1374 3.71403 17.9872 3.14373 17.7664C2.5469 17.5425 2.00628 17.1907 1.55976 16.7358C1.10513 16.289 0.75341 15.7484 0.529106 15.1518C0.307422 14.5824 0.158142 13.9334 0.113448 12.9814C0.0714349 12.0285 0.0598145 11.7255 0.0598145 9.29682C0.0598145 6.86812 0.0687533 6.56509 0.113448 5.6122C0.158142 4.65931 0.307422 4.01214 0.529106 3.44183C0.752789 2.84487 1.10459 2.3042 1.55976 1.85786C2.00641 1.40307 2.54699 1.05133 3.14373 0.827203C3.71403 0.605518 4.3612 0.456238 5.31409 0.411544C6.26697 0.369531 6.57 0.35791 8.99869 0.35791ZM8.99869 4.82736C7.81333 4.82736 6.67651 5.29825 5.83832 6.13644C5.00014 6.97462 4.52925 8.11144 4.52925 9.29682C4.52925 10.4822 5.00014 11.619 5.83832 12.4572C6.67651 13.2954 7.81333 13.7663 8.99869 13.7663C10.1841 13.7663 11.3209 13.2954 12.1591 12.4572C12.9972 11.619 13.4681 10.4822 13.4681 9.29682C13.4681 8.11144 12.9972 6.97462 12.1591 6.13644C11.3209 5.29825 10.1841 4.82736 8.99869 4.82736ZM14.809 4.60389C14.809 4.30755 14.6912 4.02334 14.4817 3.8138C14.2722 3.60425 13.9879 3.48653 13.6916 3.48653C13.3953 3.48653 13.1111 3.60425 12.9015 3.8138C12.692 4.02334 12.5742 4.30755 12.5742 4.60389C12.5742 4.90023 12.692 5.18444 12.9015 5.39399C13.1111 5.60353 13.3953 5.72125 13.6916 5.72125C13.9879 5.72125 14.2722 5.60353 14.4817 5.39399C14.6912 5.18444 14.809 4.90023 14.809 4.60389ZM8.99869 6.61514C9.70992 6.61514 10.392 6.89768 10.8949 7.40059C11.3978 7.9035 11.6804 8.58559 11.6804 9.29682C11.6804 10.008 11.3978 10.6901 10.8949 11.193C10.392 11.696 9.70992 11.9785 8.99869 11.9785C8.28747 11.9785 7.60538 11.696 7.10247 11.193C6.59956 10.6901 6.31703 10.008 6.31703 9.29682C6.31703 8.58559 6.59956 7.9035 7.10247 7.40059C7.60538 6.89768 8.28747 6.61514 8.99869 6.61514Z" fill="#202020"/>
</svg>
