<svg width="64" height="64" viewBox="0 0 64 64" fill="none" xmlns="http://www.w3.org/2000/svg">
<path d="M31.9805 63.9609C38.3056 63.9609 44.4887 62.0853 49.7479 58.5713C55.007 55.0572 59.106 50.0625 61.5266 44.2189C63.9471 38.3752 64.5804 31.945 63.3464 25.7414C62.1125 19.5378 59.0666 13.8394 54.594 9.3669C50.1215 4.89431 44.4231 1.84835 38.2196 0.614735C32.0159 -0.619476 25.5857 0.0136185 19.7421 2.43466C13.8984 4.85493 8.90372 8.95394 5.38966 14.2131C1.8756 19.4723 0 25.6553 0 31.9805C0.00888062 40.4595 3.38105 48.5886 9.37673 54.5842C15.3723 60.5797 23.5014 63.952 31.9805 63.9609ZM31.9805 4.92007C37.3325 4.92007 42.5643 6.50714 47.0144 9.48061C51.4645 12.454 54.9329 16.6802 56.981 21.6249C59.0291 26.5695 59.565 32.0105 58.5209 37.2597C57.4768 42.5089 54.8995 47.3306 51.115 51.115C47.3306 54.8995 42.5089 57.4768 37.2597 58.5209C32.0105 59.565 26.5695 59.0292 21.6249 56.981C16.6802 54.9329 12.454 51.4645 9.48055 47.0144C6.50714 42.5643 4.92007 37.3325 4.92007 31.9805C4.92819 24.8061 7.7818 17.9279 12.8548 12.8549C17.9279 7.78186 24.8061 4.92825 31.9805 4.92007ZM46.7407 38.1306C46.7407 38.8604 46.5242 39.5738 46.1188 40.1807C45.7133 40.7875 45.137 41.2604 44.4627 41.5397C43.7885 41.819 43.0465 41.8921 42.3307 41.7497C41.6149 41.6074 40.9574 41.2559 40.4414 40.7398C39.9253 40.2238 39.5739 39.5662 39.4314 38.8505C39.2891 38.1346 39.3622 37.3927 39.6414 36.7184C39.9207 36.0442 40.3937 35.4679 41.0006 35.0624C41.6074 34.6569 42.3208 34.4405 43.0506 34.4405C44.0293 34.4405 44.9679 34.8293 45.6599 35.5213C46.3519 36.2133 46.7407 37.1519 46.7407 38.1306ZM17.2202 38.1306C17.2202 37.4007 17.4366 36.6873 17.8421 36.0805C18.2476 35.4737 18.8239 35.0007 19.4982 34.7214C20.1725 34.4421 20.9144 34.3691 21.6302 34.5114C22.346 34.6538 23.0035 35.0052 23.5196 35.5213C24.0356 36.0374 24.3871 36.6949 24.5294 37.4107C24.6718 38.1265 24.5988 38.8684 24.3195 39.5427C24.0402 40.217 23.5672 40.7933 22.9604 41.1987C22.3536 41.6042 21.6401 41.8206 20.9103 41.8206C19.9316 41.8206 18.9931 41.4318 18.3011 40.7398C17.609 40.0478 17.2202 39.1092 17.2202 38.1306ZM17.5493 23.3704C20.7135 17.8998 25.9749 14.7602 31.9805 14.7602C37.986 14.7602 43.2443 17.8967 46.4086 23.3704C46.5865 23.6503 46.7061 23.9634 46.7599 24.2908C46.8138 24.6182 46.8009 24.9531 46.7219 25.2753C46.643 25.5976 46.4997 25.9006 46.3006 26.166C46.1016 26.4314 45.8509 26.6539 45.5636 26.8199C45.2764 26.9859 44.9585 27.0922 44.6292 27.1322C44.2998 27.1722 43.9657 27.1451 43.6471 27.0527C43.3284 26.9603 43.0318 26.8043 42.775 26.5943C42.5182 26.3842 42.3065 26.1244 42.1527 25.8304C39.8557 21.8605 36.2455 19.6803 31.9805 19.6803C27.7154 19.6803 24.1053 21.8636 21.8113 25.8304C21.4851 26.3956 20.9477 26.808 20.3174 26.9769C19.6871 27.146 19.0155 27.0576 18.4502 26.7313C17.8851 26.4051 17.4726 25.8678 17.3037 25.2374C17.1347 24.6071 17.2231 23.9355 17.5493 23.3704Z" fill="#040404"/>
</svg>
