<svg width="16" height="11" viewBox="0 0 16 11" fill="none" xmlns="http://www.w3.org/2000/svg">
<path d="M15.6253 2.10846C15.5347 1.79699 15.3571 1.51296 15.1102 1.28478C14.8633 1.05659 14.5558 0.892269 14.2185 0.808247C12.9769 0.5 7.9999 0.5 7.9999 0.5C7.9999 0.5 3.02289 0.5 1.7813 0.806607C1.44385 0.890357 1.13621 1.05459 0.889279 1.28281C0.642348 1.51104 0.464817 1.79522 0.374515 2.10682C0.0423583 3.25454 0.0423584 5.64837 0.0423584 5.64837C0.0423584 5.64837 0.0423583 8.0422 0.374515 9.18829C0.557467 9.82118 1.09744 10.3196 1.7813 10.4885C3.02289 10.7967 7.9999 10.7967 7.9999 10.7967C7.9999 10.7967 12.9769 10.7967 14.2185 10.4885C14.9041 10.3196 15.4423 9.82118 15.6253 9.18829C15.9575 8.0422 15.9575 5.64837 15.9575 5.64837C15.9575 5.64837 15.9575 3.25454 15.6253 2.10846ZM6.41905 7.84545V3.4513L10.5399 5.63198L6.41905 7.84545Z" fill="#202020"/>
</svg>
