<svg width="96" height="94" viewBox="0 0 96 94" fill="none" xmlns="http://www.w3.org/2000/svg">
<g clip-path="url(#clip0_1_169)">
<path d="M33.4178 26.5234H49.588C53.6681 26.5234 56.8683 27.4405 59.1892 29.2746C61.5471 31.0713 62.7261 33.523 62.7261 36.6298C62.7261 40.7472 60.6489 43.5171 56.494 44.9395V45.0518C58.7774 45.4261 60.6489 46.4741 62.1086 48.196C63.5683 49.8803 64.2984 52.1451 64.2984 54.9895C64.2984 58.658 63.0819 61.5214 60.6489 63.5801C58.2159 65.6388 54.9032 66.6681 50.7107 66.6681H33.4178V26.5234ZM50.9914 62.1764C56.3443 62.1764 59.0206 59.7809 59.0206 54.9895C59.0206 52.8187 58.384 51.0782 57.1115 49.7682C55.8765 48.458 54.2106 47.8029 52.1144 47.8029H38.471V62.1764H50.9914ZM50.1492 43.3112C52.8444 43.3112 54.7345 42.7872 55.8204 41.7391C56.9058 40.6911 57.4483 39.1751 57.4483 37.1913C57.4483 35.2823 56.8868 33.785 55.7639 32.6995C54.6409 31.5766 52.9565 31.0152 50.7107 31.0152H38.471V43.3112H50.1492Z" fill="#070707"/>
<path d="M48.1354 2.23462H47.4531C22.9045 2.23462 3.00385 22.1352 3.00385 46.6839C3.00385 71.2325 22.9045 91.1331 47.4531 91.1331H48.1354C72.6841 91.1331 92.5847 71.2325 92.5847 46.6839C92.5847 22.1352 72.6841 2.23462 48.1354 2.23462Z" stroke="#070707" stroke-width="4.09401"/>
</g>
<defs>
<clipPath id="clip0_1_169">
<rect width="94.0648" height="93.09" fill="white" transform="translate(0.956848 0.1875)"/>
</clipPath>
</defs>
</svg>
