<svg width="109" height="109" viewBox="0 0 109 109" fill="none" xmlns="http://www.w3.org/2000/svg">
<path d="M54.1994 0.601562C43.5192 0.601562 33.0789 3.7686 24.1986 9.7022C15.3184 15.6358 8.39706 24.0695 4.30993 33.9367C0.222798 43.8039 -0.84658 54.6615 1.23702 65.1365C3.32062 75.6114 8.46362 85.2333 16.0157 92.7853C23.5677 100.337 33.1896 105.481 43.6645 107.564C54.1395 109.648 64.9971 108.579 74.8643 104.491C84.7315 100.404 93.1652 93.4826 99.0988 84.6024C105.032 75.7221 108.199 65.2818 108.199 54.6016C108.184 40.2845 102.49 26.5582 92.3665 16.4345C82.2428 6.3108 68.5165 0.616682 54.1994 0.601562ZM54.1994 100.294C45.1623 100.294 36.3282 97.6141 28.8141 92.5933C21.3001 87.5726 15.4436 80.4365 11.9852 72.0873C8.52689 63.7381 7.62203 54.5509 9.38508 45.6875C11.1481 36.824 15.4999 28.6824 21.8901 22.2923C28.2803 15.9021 36.4219 11.5503 45.2853 9.78722C54.1487 8.02417 63.3359 8.92903 71.6851 12.3874C80.0343 15.8458 87.1704 21.7022 92.1912 29.2163C97.2119 36.7304 99.8917 45.5645 99.8917 54.6016C99.878 66.7157 95.0596 78.3298 86.4936 86.8957C77.9276 95.4617 66.3135 100.28 54.1994 100.294ZM29.2763 44.217C29.2763 42.9846 29.6418 41.78 30.3264 40.7553C31.0111 39.7307 31.9842 38.9321 33.1227 38.4605C34.2612 37.9889 35.514 37.8655 36.7227 38.1059C37.9313 38.3463 39.0415 38.9398 39.9129 39.8112C40.7843 40.6825 41.3777 41.7928 41.6182 43.0014C41.8586 44.2101 41.7352 45.4629 41.2636 46.6014C40.792 47.7399 39.9934 48.713 38.9687 49.3977C37.9441 50.0823 36.7394 50.4477 35.5071 50.4477C33.8546 50.4477 32.2698 49.7913 31.1013 48.6228C29.9328 47.4543 29.2763 45.8695 29.2763 44.217ZM79.1225 44.217C79.1225 45.4493 78.7571 46.654 78.0724 47.6786C77.3878 48.7032 76.4146 49.5019 75.2761 49.9735C74.1376 50.445 72.8848 50.5684 71.6762 50.328C70.4675 50.0876 69.3573 49.4942 68.4859 48.6228C67.6145 47.7514 67.0211 46.6412 66.7807 45.4325C66.5403 44.2239 66.6636 42.9711 67.1352 41.8326C67.6068 40.694 68.4054 39.7209 69.4301 39.0363C70.4547 38.3516 71.6594 37.9862 72.8917 37.9862C74.5442 37.9862 76.129 38.6427 77.2975 39.8112C78.466 40.9797 79.1225 42.5645 79.1225 44.217ZM78.5669 69.14C73.224 78.3772 64.34 83.6785 54.1994 83.6785C44.0588 83.6785 35.18 78.3824 29.8371 69.14C29.5366 68.6673 29.3348 68.1386 29.2438 67.5858C29.1529 67.033 29.1747 66.4675 29.308 65.9234C29.4413 65.3792 29.6833 64.8677 30.0194 64.4195C30.3555 63.9713 30.7788 63.5957 31.2638 63.3153C31.7489 63.035 32.2856 62.8556 32.8417 62.7881C33.3979 62.7205 33.9619 62.7662 34.5 62.9223C35.038 63.0783 35.5389 63.3417 35.9725 63.6963C36.4062 64.051 36.7636 64.4898 37.0233 64.9862C40.9019 71.6895 46.9977 75.3708 54.1994 75.3708C61.4011 75.3708 67.4969 71.6843 71.3704 64.9862C71.9212 64.0319 72.8286 63.3355 73.8929 63.0502C74.9572 62.7648 76.0912 62.914 77.0456 63.4649C77.9999 64.0157 78.6963 64.9231 78.9816 65.9874C79.2669 67.0517 79.1177 68.1857 78.5669 69.14Z" fill="#040404"/>
</svg>
